<?xml version="1.0" encoding="utf-8"?>
<!-- Generator: Adobe Illustrator 24.1.0, SVG Export Plug-In . SVG Version: 6.00 Build 0)  -->
<svg version="1.1" id="レイヤー_1" xmlns="http://www.w3.org/2000/svg" xmlns:xlink="http://www.w3.org/1999/xlink" x="0px"
	 y="0px" width="482.3px" height="55.5px" viewBox="0 0 482.3 55.5" style="enable-background:new 0 0 482.3 55.5;"
	 xml:space="preserve">
<g id="レイヤー_2_1_">
	<g id="レイヤー_1-2">
		<g id="線_36">
			<path d="M67,55.5H3c-1.9-0.3-3.3-2.1-3-4c0.2-1.5,1.4-2.7,3-3h64c1.9,0.3,3.3,2.1,3,4C69.7,54.1,68.5,55.3,67,55.5z"/>
		</g>
		<g id="線_37">
			<path d="M13,40c-1.8,0.1-3.4-1.2-3.5-3V3c0.1-1.8,1.7-3.1,3.5-3c1.8-0.1,3.4,1.2,3.5,3v34C16.4,38.8,14.8,40.1,13,40z"/>
		</g>
		<g id="線_38">
			<path d="M35,40c-1.8,0.1-3.4-1.2-3.5-3V3c0.1-1.8,1.7-3.1,3.5-3c1.8-0.1,3.4,1.2,3.5,3v34C38.4,38.8,36.8,40.1,35,40z"/>
		</g>
		<g id="線_39">
			<path d="M57,40c-1.8,0.1-3.4-1.2-3.5-3V3c0.3-1.9,2.1-3.3,4-3c1.5,0.2,2.7,1.4,3,3v34C60.4,38.8,58.8,40.1,57,40z"/>
		</g>
		<path d="M254.7,15c2.4-4.1,5.8-7.5,9.8-9.9c8.3-4.9,18.6-4.9,26.9,0c4.1,2.4,7.5,5.8,9.9,9.9c2.4,4.1,3.7,8.7,3.7,13.4
			c0,4.8-1.2,9.4-3.6,13.5c-2.4,4.1-5.8,7.5-9.9,9.8c-12.8,7.5-29.3,3.2-36.8-9.6c-2.4-4.2-3.7-8.9-3.7-13.7
			C251,23.7,252.2,19.1,254.7,15z M260.9,38.5c1.7,3,4.2,5.6,7.2,7.3c3,1.8,6.5,2.7,10,2.7c3.5,0,6.9-0.9,9.9-2.7
			c3-1.8,5.4-4.3,7.1-7.3c1.7-3.1,2.6-6.6,2.6-10.1c0-3.6-0.9-7.1-2.6-10.1c-1.7-3.1-4.2-5.6-7.2-7.4c-6.1-3.6-13.7-3.6-19.9,0
			c-3,1.8-5.5,4.4-7.1,7.4c-1.7,3.1-2.6,6.6-2.6,10.2C258.3,32,259.2,35.5,260.9,38.5L260.9,38.5z"/>
		<path d="M125.5,1.5c1.9,0,3.5,1.6,3.5,3.5c0,1.9-1.6,3.4-3.5,3.4h-17.6c-1.9,0-3.5,1.6-3.5,3.5v10c0,1.9,1.6,3.5,3.5,3.5h14.5
			c1.9,0,3.4,1.5,3.4,3.4c0,1.9-1.5,3.4-3.4,3.4c0,0,0,0,0,0h-14.5c-1.9,0-3.5,1.6-3.5,3.5v15.7c0,1.9-1.6,3.5-3.5,3.5h-0.2
			c-1.9,0-3.5-1.6-3.5-3.5V5c0-1.9,1.6-3.5,3.5-3.5L125.5,1.5z"/>
		<path d="M152.6,42.3c1.1,1.9,2.7,3.4,4.6,4.5c2,1.1,4.2,1.7,6.5,1.7c2.3,0,4.6-0.5,6.7-1.6c1.9-1,3.6-2.6,4.7-4.5
			c0.6-0.9,1-1.9,1.3-3c0.3-2.3,0.4-4.7,0.4-7V4.9c0-1.9,1.6-3.5,3.5-3.5l0,0c1.9,0,3.5,1.6,3.5,3.5v27.7c0,2.3-0.2,4.7-0.4,7
			c-0.3,2.3-1.1,4.6-2.2,6.6c-1.7,2.9-4.2,5.3-7.2,6.8c-6.4,3.2-13.9,3.2-20.3,0c-3-1.5-5.5-3.9-7.2-6.8c-1.1-2.1-1.9-4.3-2.2-6.6
			c-0.3-2.3-0.4-4.7-0.4-7V4.9c0-1.9,1.6-3.5,3.5-3.5h0.2c1.9,0,3.5,1.6,3.5,3.5v27.5c0,2.3,0.2,4.7,0.4,7
			C151.5,40.4,152,41.4,152.6,42.3z"/>
		<path d="M236,55.4c-2.2-0.1-4.2-1.2-5.4-3l-8.9-14c-1-1.6-2.1-3-2.4-3s-2.9,0-4.8,0h-0.9c-2,0-3.5,1.6-3.5,3.6c0,0,0,0.1,0,0.1
			v12.8c0,1.9-1.6,3.5-3.5,3.5h-0.2c-2,0-3.5-1.6-3.5-3.5V4.9c0-2,1.6-3.5,3.5-3.5h7.4c1.9,0,5.1,0.1,7,0.3c2.2,0.2,4.3,0.8,6.4,1.6
			c2.8,1.2,5.1,3.2,6.8,5.7c1.7,2.7,2.6,5.9,2.5,9.1c0,3.2-0.7,6.3-2.2,9.2c-0.9,1.7-2.2,3.2-3.8,4.4c-1.6,1.1-2.1,3.3-1.1,5
			l9.8,15.8c1,1.7,0.3,3-1.7,3H236z M226.2,25.4c1.7-1.9,2.6-4.4,2.6-7c0-1.6-0.4-3.2-1.1-4.7c-0.8-1.6-2-2.9-3.4-3.8
			c-0.7-0.5-1.6-0.9-2.4-1.1c-1.9-0.2-5.1-0.4-7-0.4h-1.3c-2,0-3.5,1.6-3.6,3.5c0,0,0,0,0,0V25c0,1.9,1.6,3.5,3.5,3.5h0.8
			c2.3,0,4.7-0.2,7-0.5C223.2,27.7,224.9,26.8,226.2,25.4L226.2,25.4z"/>
		<path d="M373.9,3.1v48.7c0,2-1.6,3.6-3.6,3.6h-0.1c-2,0-3.6-1.6-3.6-3.6V23.3c0-2-0.9-2.3-2.1-0.7l-16.1,22.9
			c-0.7,1.2-2.3,1.6-3.5,0.8c-0.3-0.2-0.6-0.5-0.8-0.8l-15.7-21.9c-1.1-1.6-2.1-1.3-2.1,0.7v27.5c0.1,2-1.4,3.7-3.4,3.8
			c-2,0.1-3.7-1.4-3.8-3.4c0-0.1,0-0.3,0-0.4V3.1c0-2,2-2.3,3.2-0.7l22,31.5c0.7,1.2,2.1,1.6,3.3,0.9c0.4-0.2,0.7-0.5,0.9-0.9
			l22.3-31.6C371.8,0.8,373.9,1.1,373.9,3.1z"/>
		<path d="M422.5,44.3c-0.9-1.9-2.8-3.2-4.9-3.3h-13.9c-2.1,0.1-4,1.4-4.9,3.3l-3.1,7.7c-0.9,1.9-2.8,3.2-4.9,3.3h-0.1
			c-1.2,0.2-2.3-0.7-2.5-1.9c-0.1-0.5,0-1,0.3-1.4l20.1-49.3c0.8-1.8,4.5-1.8,5.3,0l20.1,49.3c0.6,1.1,0.3,2.4-0.8,3
			c-0.4,0.2-0.9,0.3-1.4,0.3h-1.3c-2.1-0.1-4-1.4-4.9-3.3L422.5,44.3z M415.1,34.7c1.3,0.1,2.4-0.7,2.5-2c0.1-0.5,0-0.9-0.2-1.3
			L412.2,18c-0.7-1.8-1.9-1.8-2.6,0l-5.4,13.3c-0.6,1.1-0.2,2.5,0.9,3.1c0.4,0.2,0.9,0.3,1.3,0.3L415.1,34.7z"/>
		<path d="M477.3,5.8c3.3,2.9,5,7,5,12.3c0,2.9-0.6,5.8-1.8,8.5c-1.3,2.7-3.3,4.9-5.9,6.4c-2.1,1.1-4.4,1.8-6.8,2.1
			c-1.9,0.2-5.1,0.4-7,0.4h-0.9c-1.9,0-3.5,1.6-3.5,3.5v12.8c0,1.9-1.6,3.5-3.5,3.5h-0.2c-2,0.1-3.6-1.5-3.6-3.4c0,0,0-0.1,0-0.1
			V4.9c0-2,1.6-3.5,3.5-3.5h7.5c2.3,0,4.7,0.2,7,0.5C467,1.9,474,2.9,477.3,5.8z M470.6,26.9c1.5-1,2.7-2.4,3.5-4c0.6-1.4,1-3,1-4.6
			c0-2.5-0.9-5-2.5-6.9c-1.2-1.3-2.7-2.1-4.4-2.5c-2.3-0.3-4.7-0.5-7-0.6h-1.3c-2,0-3.5,1.6-3.5,3.5V25c0,1.9,1.6,3.5,3.5,3.5h0.9
			c1.9,0,5.1-0.2,7-0.4C468.8,27.9,469.7,27.5,470.6,26.9z"/>
	</g>
</g>
</svg>
