<svg xmlns="http://www.w3.org/2000/svg" viewBox="0 0 482.28 55.5"><g id="レイヤー_2" data-name="レイヤー 2"><g id="レイヤー_1-2" data-name="レイヤー 1"><g id="線_36" data-name="線 36"><path d="M67,55.5H3a3.54,3.54,0,0,1,0-7H67a3.54,3.54,0,0,1,0,7Z"/></g><g id="線_37" data-name="線 37"><path d="M13,40a3.28,3.28,0,0,1-3.5-3V3A3.28,3.28,0,0,1,13,0a3.28,3.28,0,0,1,3.5,3V37A3.28,3.28,0,0,1,13,40Z"/></g><g id="線_38" data-name="線 38"><path d="M35,40a3.28,3.28,0,0,1-3.5-3V3A3.28,3.28,0,0,1,35,0a3.28,3.28,0,0,1,3.5,3V37A3.28,3.28,0,0,1,35,40Z"/></g><g id="線_39" data-name="線 39"><path d="M57,40a3.28,3.28,0,0,1-3.5-3V3a3.54,3.54,0,0,1,7,0V37A3.28,3.28,0,0,1,57,40Z"/></g><path d="M254.66,15a27.73,27.73,0,0,1,9.82-9.9,26.41,26.41,0,0,1,26.93,0,28,28,0,0,1,9.9,9.9A25.85,25.85,0,0,1,305,28.42a26.22,26.22,0,0,1-3.65,13.52,27.05,27.05,0,0,1-9.9,9.83A26.87,26.87,0,0,1,251,28.42,26,26,0,0,1,254.66,15Zm6.28,23.53a19.72,19.72,0,0,0,7.2,7.31,19.23,19.23,0,0,0,10,2.7,19,19,0,0,0,9.9-2.67,19.23,19.23,0,0,0,7.09-7.31,20.36,20.36,0,0,0,2.6-10.12,20.31,20.31,0,0,0-2.64-10.15,19.59,19.59,0,0,0-7.16-7.38,19.47,19.47,0,0,0-19.87,0,19.69,19.69,0,0,0-7.13,7.42,20.59,20.59,0,0,0-2.59,10.16A19.88,19.88,0,0,0,260.94,38.51Z"/><path d="M125.51,1.52A3.49,3.49,0,0,1,129,5a3.49,3.49,0,0,1-3.5,3.44H107.94a3.5,3.5,0,0,0-3.5,3.5v10a3.51,3.51,0,0,0,3.5,3.5h14.53a3.44,3.44,0,1,1,0,6.88H107.94a3.51,3.51,0,0,0-3.5,3.5V51.52a3.52,3.52,0,0,1-3.5,3.5h-.18a3.52,3.52,0,0,1-3.5-3.5V5a3.51,3.51,0,0,1,3.5-3.5Z"/><path d="M152.58,42.28a12.47,12.47,0,0,0,4.62,4.5,12.79,12.79,0,0,0,6.46,1.66,13.78,13.78,0,0,0,6.68-1.62A11.9,11.9,0,0,0,175,42.31a8.83,8.83,0,0,0,1.27-3,67.36,67.36,0,0,0,.43-7V4.88a3.51,3.51,0,0,1,3.5-3.49h0a3.5,3.5,0,0,1,3.49,3.49V32.61a67.56,67.56,0,0,1-.43,7,19,19,0,0,1-2.23,6.61,18.1,18.1,0,0,1-7.24,6.8,22.68,22.68,0,0,1-20.31,0,17.8,17.8,0,0,1-7.2-6.8,19.35,19.35,0,0,1-2.2-6.61,67.56,67.56,0,0,1-.43-7V4.88a3.51,3.51,0,0,1,3.5-3.49h.18a3.5,3.5,0,0,1,3.49,3.49V32.39a67.37,67.37,0,0,0,.44,7A8.48,8.48,0,0,0,152.58,42.28Z"/><path d="M236,55.39a7.2,7.2,0,0,1-5.43-3l-8.9-14c-1-1.64-2.12-3-2.39-3s-2.89,0-4.83,0h-.93A3.54,3.54,0,0,0,210,39.05V51.86a3.54,3.54,0,0,1-3.53,3.53h-.18a3.54,3.54,0,0,1-3.54-3.53V4.92a3.54,3.54,0,0,1,3.54-3.53h7.35c1.94,0,5.11.14,7,.32A23.43,23.43,0,0,1,227,3.33,15.42,15.42,0,0,1,233.79,9a16.19,16.19,0,0,1,2.47,9.08,19.47,19.47,0,0,1-2.2,9.18,13.23,13.23,0,0,1-3.83,4.38,3.7,3.7,0,0,0-1.06,5L239,52.39c1,1.65.28,3-1.66,3Zm-9.77-29.95a10.58,10.58,0,0,0,2.58-7,11,11,0,0,0-1.08-4.71,9.22,9.22,0,0,0-3.44-3.84,6.74,6.74,0,0,0-2.43-1.13c-1.93-.22-5.1-.41-7-.41h-1.3A3.54,3.54,0,0,0,210,11.87V25a3.54,3.54,0,0,0,3.53,3.53h.78a56.89,56.89,0,0,0,7-.53A9,9,0,0,0,226.21,25.44Z"/><path d="M373.88,3.1V51.78a3.62,3.62,0,0,1-3.6,3.61h-.11a3.62,3.62,0,0,1-3.61-3.61V23.28c0-2-.94-2.28-2.08-.66L348.34,45.49a2.55,2.55,0,0,1-4.34,0L328.29,23.6c-1.15-1.61-2.1-1.31-2.1.68v27.5a3.59,3.59,0,1,1-7.17,0V3.1c0-2,2-2.28,3.19-.66l22,31.53a2.41,2.41,0,0,0,4.18,0L370.68,2.42C371.83.81,373.88,1.11,373.88,3.1Z"/><path d="M422.46,44.34A5.67,5.67,0,0,0,417.57,41H403.7a5.76,5.76,0,0,0-4.93,3.31l-3.13,7.74a5.75,5.75,0,0,1-4.92,3.32h-.11a2.21,2.21,0,0,1-2.19-3.3L408.53,2.75c.76-1.82,4.5-1.82,5.27,0l20.11,49.34a2.21,2.21,0,0,1-2.19,3.3H430.4a5.68,5.68,0,0,1-4.89-3.33Zm-7.39-9.68a2.28,2.28,0,0,0,2.28-3.33L412.16,18c-.71-1.83-1.9-1.84-2.64,0l-5.41,13.33a2.25,2.25,0,0,0,2.23,3.32Z"/><path d="M477.31,5.79q5,4.41,5,12.33a20,20,0,0,1-1.83,8.51,14.69,14.69,0,0,1-5.9,6.43,19.52,19.52,0,0,1-6.76,2.08c-1.93.21-5.1.38-7,.38h-.93a3.54,3.54,0,0,0-3.53,3.53V51.86a3.54,3.54,0,0,1-3.53,3.53h-.18A3.54,3.54,0,0,1,449,51.86V4.92a3.54,3.54,0,0,1,3.54-3.53H460a61.19,61.19,0,0,1,7,.49S474,2.86,477.31,5.79Zm-6.72,21.07a9.52,9.52,0,0,0,3.48-4,11.38,11.38,0,0,0,1-4.59,10.47,10.47,0,0,0-2.54-6.91,8.08,8.08,0,0,0-4.43-2.46,53.29,53.29,0,0,0-7-.57h-1.3a3.54,3.54,0,0,0-3.53,3.54V25a3.54,3.54,0,0,0,3.53,3.53h.93c1.94,0,5.11-.18,7-.41A7.1,7.1,0,0,0,470.59,26.86Z"/></g></g></svg>