<?xml version="1.0" encoding="utf-8"?>
<!-- Generator: Adobe Illustrator 24.1.0, SVG Export Plug-In . SVG Version: 6.00 Build 0)  -->
<svg version="1.1" id="レイヤー_1" xmlns="http://www.w3.org/2000/svg" xmlns:xlink="http://www.w3.org/1999/xlink" x="0px"
	 y="0px" width="32px" height="32px" viewBox="0 0 32 32" style="enable-background:new 0 0 32 32;" xml:space="preserve">
<path d="M13.03,30.37c-0.17,0-0.35-0.09-0.52-0.17c-0.35-0.17-0.61-0.61-0.61-0.96V17.26L2.28,5.89C1.84,5.37,1.93,4.67,2.46,4.32
	c0.44-0.44,1.14-0.44,1.57,0.09l9.88,11.71c0.17,0.17,0.26,0.44,0.26,0.7v10.4l3.5-2.1v-8.13c0-0.35,0.09-0.61,0.26-0.87l8.48-9.79
	H9.45c-0.61,0-1.14-0.52-1.14-1.14s0.52-1.14,1.14-1.14h19.41c0.44,0,0.87,0.26,1.05,0.7c0.17,0.44,0.09,0.87-0.17,1.22l-9.8,11.28
	v8.57c0,0.44-0.17,0.79-0.52,0.96l-5.77,3.41C13.43,30.33,13.21,30.37,13.03,30.37z"/>
</svg>
